<svg xmlns="http://www.w3.org/2000/svg" viewBox="0 0 2201 1100"><defs><style>.cls-1{fill:#ff7d37;}.cls-2{fill:#9bc617;}.cls-3{fill:#ffbc00;}.cls-4{fill:#ed2828;}.cls-5{fill:#198cff;}</style></defs><title>Resurs 6</title><g id="Lager_2" data-name="Lager 2"><g id="Layer_1" data-name="Layer 1"><path class="cls-1" d="M1505.05,395.05a6.67,6.67,0,0,1-4.71,1.95H1397.66a6.66,6.66,0,0,1-6.66-6.66V357.67a6.67,6.67,0,0,1,6.66-6.67h6.43a6.66,6.66,0,0,0,6.66-6.66V324a6.65,6.65,0,0,0-2-4.71L1396,306.45a6.65,6.65,0,0,0-4.71-1.95h-31a6.65,6.65,0,0,0-4.71,1.95l-20.6,20.6a6.65,6.65,0,0,0-2,4.71v30.58a6.66,6.66,0,0,1-6.66,6.66h-36a6.66,6.66,0,0,0,6.66-6.66V337.17a6.67,6.67,0,0,0-6.66-6.67h-40.08a6.65,6.65,0,0,0-4.71,1.95l-60.6,60.6a6.65,6.65,0,0,1-4.71,1.95h-19.58a6.66,6.66,0,0,1-6.66-6.66V359.09a6.66,6.66,0,0,0-11.37-4.71L1118,379.05a6.65,6.65,0,0,1-4.71,1.95h-19.58a6.66,6.66,0,0,1-6.66-6.66V355.09a6.66,6.66,0,0,0-11.37-4.71L1023,403.05a6.65,6.65,0,0,1-4.71,1.95H989.66a6.66,6.66,0,0,1-6.66-6.66V359.67a6.67,6.67,0,0,1,6.66-6.67h26.41a6.67,6.67,0,0,0,6.67-6.66V320.63a6.67,6.67,0,0,1,2.11-4.87l43.23-42.55a6.67,6.67,0,0,1,4.55-1.79h101.86a6.65,6.65,0,0,0,4.71-1.95l32.68-30.68a6.67,6.67,0,0,0,1.95-4.71V206.45a6.66,6.66,0,0,0-6.66-6.66H1190.4a6.65,6.65,0,0,0-4.71,2L1134.45,253a6.65,6.65,0,0,1-4.71,2h-41a6.68,6.68,0,0,1-4.72-2l-8-8a6.66,6.66,0,0,1-2-4.71V223.82a6.64,6.64,0,0,1,2-4.71l17-17.05a6.65,6.65,0,0,1,4.71-1.95h9.59a6.65,6.65,0,0,0,4.71-2l61-61a6.65,6.65,0,0,1,4.71-1.95H1257a6.65,6.65,0,0,1,4.71,1.95l23.32,23.32a6.65,6.65,0,0,0,4.71,1.95h43.92a6.67,6.67,0,0,0,4.71-1.95l67.66-67.66a6.65,6.65,0,0,1,4.71-2h55.6a6.68,6.68,0,0,1,4.72,2l29,29a6.65,6.65,0,0,0,4.71,2H1636a6.65,6.65,0,0,0,4.71-2l24.35-24.35a6.65,6.65,0,0,1,4.71-2h122a6.65,6.65,0,0,1,4.71,2l40.6,40.6a6.65,6.65,0,0,0,4.71,1.95h38.58a6.66,6.66,0,0,0,6.66-6.66V106.17a6.67,6.67,0,0,1,6.66-6.67h44.08a6.65,6.65,0,0,1,4.71,2l35.6,35.6a6.65,6.65,0,0,0,4.71,1.95h211.58a6.67,6.67,0,0,1,6.66,6.67v23.57a6.65,6.65,0,0,1-1.95,4.71L2079,294.05a6.65,6.65,0,0,1-4.71,1.95h-21.58a6.66,6.66,0,0,1-6.66-6.66V239.67a6.67,6.67,0,0,0-6.66-6.67H1928a6.67,6.67,0,0,0-6.66,6.67v63.78a6.69,6.69,0,0,1-2.16,4.91l-21.31,19.56h0l-69-69a6.65,6.65,0,0,0-4.71-1.95h-29.58a6.67,6.67,0,0,0-6.66,6.67v49.57a6.65,6.65,0,0,1-2,4.71l-14.1,14.1a6.65,6.65,0,0,1-4.71,1.95h-76.48a6.65,6.65,0,0,1-4.71-1.95l-35.84-35.84a6.66,6.66,0,0,0-9.42,0L1577,360l-6,6.05a6.65,6.65,0,0,1-4.71,1.95h-52.58a6.67,6.67,0,0,0-6.66,6.67v15.67A6.61,6.61,0,0,1,1505.05,395.05Z"/><path class="cls-2" d="M2177,965.67v35.57a6.65,6.65,0,0,1-1.95,4.71l-43.6,43.6a6.65,6.65,0,0,1-4.71,2h-9.08a6.66,6.66,0,0,1-6.66-6.66v-20.08a6.65,6.65,0,0,1,1.95-4.71l22.1-22.1a6.65,6.65,0,0,0,1.95-4.71V965.67a6.67,6.67,0,0,1,6.66-6.67h26.68A6.67,6.67,0,0,1,2177,965.67Z"/><path class="cls-2" d="M2011,865.76v45.48a6.65,6.65,0,0,1-2,4.71l-14.1,14.1a6.65,6.65,0,0,0-2,4.71v48.33a6.66,6.66,0,0,1-6.66,6.66H1953a6.65,6.65,0,0,1-4.71-2L1893,932.45a6.65,6.65,0,0,0-4.71-2h-43a6.65,6.65,0,0,0-4.71,2l-25.6,25.6a6.65,6.65,0,0,1-4.71,2h-33.58a6.66,6.66,0,0,1-6.66-6.66V878.17a6.67,6.67,0,0,1,2.45-5.17l84.71-69a6.67,6.67,0,0,1,4.21-1.5h86.37a6.65,6.65,0,0,1,4.71,2l56.6,56.6A6.65,6.65,0,0,1,2011,865.76Z"/><path class="cls-2" d="M1981.63,744.63a6.66,6.66,0,0,1-4.72,11.37h-52.25a6.66,6.66,0,0,1-6.66-6.66V718.67a6.67,6.67,0,0,0-6.66-6.67h-23.68a6.66,6.66,0,0,1-6.66-6.66V691.67a6.67,6.67,0,0,1,6.66-6.67h31.58a6.65,6.65,0,0,1,4.71,2Z"/><path class="cls-3" d="M1962.29,390.29a6.66,6.66,0,0,1,0,9.42L1908,454.05a6.65,6.65,0,0,1-4.71,1.95h-33.58a6.66,6.66,0,0,1-6.66-6.66V435.1a6.66,6.66,0,0,1,6.66-6.66h22.63a6.67,6.67,0,0,0,4.71-1.95l46-46a6.65,6.65,0,0,1,9.42,0Z"/><path class="cls-3" d="M1897.91,327.92,1871.66,352a6.64,6.64,0,0,0-2.16,4.91v47.16a6.66,6.66,0,0,1-6.66,6.66h-14.18a6.66,6.66,0,0,1-6.66-6.66V381.67a6.67,6.67,0,0,0-6.66-6.67h-15.18a6.67,6.67,0,0,0-6.66,6.67v86.07a6.65,6.65,0,0,1-2,4.71l-48.6,48.6a6.65,6.65,0,0,1-4.71,2H1741L1718,500a6.65,6.65,0,0,0-4.71-1.95h-58.58a6.66,6.66,0,0,1-6.66-6.66v-.68a6.66,6.66,0,0,0-6.66-6.66h-30.58a6.65,6.65,0,0,1-4.71-1.95L1579,455a6.65,6.65,0,0,1-2-4.71V360l63.79-63.79a6.66,6.66,0,0,1,9.42,0l35.84,35.84a6.65,6.65,0,0,0,4.71,1.95h76.48a6.65,6.65,0,0,0,4.71-1.95l14.1-14.1a6.65,6.65,0,0,0,2-4.71V263.67a6.67,6.67,0,0,1,6.66-6.67h29.58A6.65,6.65,0,0,1,1829,259l69,69Z"/><path class="cls-2" d="M1820,705.67v15.67a6.66,6.66,0,0,1-6.66,6.66h-15.68a6.66,6.66,0,0,1-6.66-6.66V705.67a6.67,6.67,0,0,1,6.66-6.67h15.68A6.67,6.67,0,0,1,1820,705.67Z"/><path class="cls-2" d="M1814,577.67v31.25a6.66,6.66,0,0,1-11.37,4.71L1793,604a6.65,6.65,0,0,1-2-4.71V577.67a6.67,6.67,0,0,1,6.66-6.67h9.68A6.67,6.67,0,0,1,1814,577.67Z"/><path class="cls-2" d="M1782,656.09v44.25a6.66,6.66,0,0,1-6.66,6.66h-29.68a6.66,6.66,0,0,1-6.66-6.66V685.76a6.65,6.65,0,0,1,2-4.71l29.68-29.67A6.66,6.66,0,0,1,1782,656.09Z"/><path class="cls-2" d="M1768,739.67v9.67a6.66,6.66,0,0,1-6.66,6.66h-32.58a6.65,6.65,0,0,1-4.71-2l-46.6-46.6a6.65,6.65,0,0,1-2-4.71V679.67a6.67,6.67,0,0,0-6.66-6.67h-9.18a6.66,6.66,0,0,1-6.66-6.66V653a6.65,6.65,0,0,1,2-4.71l12.47-12.47a6.68,6.68,0,0,0,2-4.71V610.43a6.67,6.67,0,0,0-1.94-4.69L1632.93,571a6.65,6.65,0,0,1-1.93-4.69V530.67a6.67,6.67,0,0,0-6.66-6.67h-38.68a6.67,6.67,0,0,0-6.66,6.67v83.51a6.67,6.67,0,0,1-6.66,6.67h-20.42a6.68,6.68,0,0,1-4.72-2L1517.26,589a6.65,6.65,0,0,1-2-4.71V533.45a6.65,6.65,0,0,0-2-4.71L1467,482.33a6.63,6.63,0,0,0-2.65-1.62h0l22.25-22.25a6.65,6.65,0,0,1,4.71-1.95h30.08a6.66,6.66,0,0,0,6.66-6.66V418.07a6.64,6.64,0,0,0-2.33-5.06l-20.62-18a6.61,6.61,0,0,0,2-4.71V374.67a6.67,6.67,0,0,1,6.66-6.67h52.58a6.65,6.65,0,0,0,4.71-1.95l6-6.05v90.24a6.65,6.65,0,0,0,2,4.71l27.1,27.1a6.65,6.65,0,0,0,4.71,1.95h30.58a6.66,6.66,0,0,1,6.66,6.66v.68a6.66,6.66,0,0,0,6.66,6.66h58.58A6.65,6.65,0,0,1,1718,500L1741,523h-23.83a6.67,6.67,0,0,0-6.66,6.67v12.07a6.65,6.65,0,0,0,2,4.71l17.6,17.6a6.65,6.65,0,0,1,2,4.71v20.43a6.68,6.68,0,0,1-1.94,4.7l-12.33,12.4a6.68,6.68,0,0,1-4.72,2h-20.1a6.67,6.67,0,0,0-6.66,6.67v8.57a6.65,6.65,0,0,0,2,4.71l9.85,9.85a6.65,6.65,0,0,1,2,4.71v51.59a6.68,6.68,0,0,0,1.82,4.58l30.21,32a6.64,6.64,0,0,0,4.84,2.09h24.47A6.67,6.67,0,0,1,1768,739.67Z"/><path class="cls-4" d="M1528,418.07v31.77a6.66,6.66,0,0,1-6.66,6.66h-30.08a6.65,6.65,0,0,0-4.71,1.95L1464.3,480.7h0a6.49,6.49,0,0,0-2.06-.33h-60.85a6.72,6.72,0,0,1-4.72-1.95L1370,451.7a6.65,6.65,0,0,0-4.71-1.95h-23.9a6.67,6.67,0,0,0-4.72,11.38l32.93,32.92a6.65,6.65,0,0,1,2,4.71v15.66a6.66,6.66,0,0,0,11.37,4.71L1393.05,509a6.65,6.65,0,0,1,4.71-1.95h14.08a6.67,6.67,0,0,1,6.66,6.67v11.07a6.65,6.65,0,0,1-2,4.71l-36.6,36.6a6.65,6.65,0,0,1-4.71,2H1338c-1.71,0-24.52-24-31.18-31.07a6.65,6.65,0,0,1-1.82-4.57v-40.6a6.65,6.65,0,0,0-2-4.71L1287,471a6.65,6.65,0,0,0-4.71-1.95h-15a6.67,6.67,0,0,0-6.67,6.67v65.95a6.68,6.68,0,0,0,2,4.71l69.72,69.72a6.65,6.65,0,0,1,2,4.71v32.73a6.65,6.65,0,0,1-2,4.71l-49.85,49.85a6.65,6.65,0,0,0-2,4.71v103a6.65,6.65,0,0,1-2,4.71l-32.6,32.6a6.65,6.65,0,0,0-2,4.71v25.48a6.65,6.65,0,0,1-2,4.71l-48.1,48.1a6.65,6.65,0,0,1-4.71,2H1170a6.66,6.66,0,0,1-6.66-6.66v-25a6.64,6.64,0,0,0-2-4.71L1152.7,893a6.65,6.65,0,0,1-2-4.71V864a6.65,6.65,0,0,0-2-4.71L1137.45,848a6.65,6.65,0,0,1-2-4.71v-113a6.65,6.65,0,0,0-2-4.71L1107,699a6.65,6.65,0,0,1-2-4.71V640.92a6.67,6.67,0,0,0-6.66-6.67H992.51a6.65,6.65,0,0,1-4.71-2L957.45,602a6.65,6.65,0,0,1-2-4.71V554.5h51.84a6.66,6.66,0,0,0,6.66-6.66V515.67a6.67,6.67,0,0,1,6.66-6.67h43.58A6.65,6.65,0,0,1,1069,511l23.6,23.6a6.65,6.65,0,0,0,4.71,2h20a6.65,6.65,0,0,0,4.71-2l24.93-24.92a6.66,6.66,0,0,1,11.37,4.71,6.66,6.66,0,0,0,6.66,6.66h21.43a6.67,6.67,0,0,1,6.66,6.67v4.67a6.66,6.66,0,0,0,6.66,6.66h5.68a6.66,6.66,0,0,0,6.66-6.66V442h60.34a6.66,6.66,0,0,0,6.66-6.66V405.67a6.67,6.67,0,0,0-6.66-6.67h-41.68a6.66,6.66,0,0,1-6.66-6.66V375.67a6.67,6.67,0,0,1,6.66-6.67h95.68a6.66,6.66,0,0,0,6.66-6.66V331.76a6.65,6.65,0,0,1,2-4.71l20.6-20.6a6.65,6.65,0,0,1,4.71-1.95h31a6.65,6.65,0,0,1,4.71,1.95l12.85,12.85a6.65,6.65,0,0,1,2,4.71v20.33a6.66,6.66,0,0,1-6.66,6.66h-6.43a6.67,6.67,0,0,0-6.66,6.67v32.67a6.66,6.66,0,0,0,6.66,6.66h102.68a6.67,6.67,0,0,0,4.71-1.95l20.62,18A6.64,6.64,0,0,1,1528,418.07Z"/><path class="cls-4" d="M1354.84,803a6.66,6.66,0,0,1,5.61,10.25l-27.17,42.53A6.66,6.66,0,0,1,1321,852.2V809.67a6.67,6.67,0,0,1,6.66-6.67Z"/><path class="cls-1" d="M1279,414.88v20.46a6.66,6.66,0,0,1-6.66,6.66H1266V421.54a6.66,6.66,0,0,1,6.66-6.66Z"/><path class="cls-1" d="M1212,442v90.34a6.66,6.66,0,0,1-6.66,6.66h-5.68a6.66,6.66,0,0,1-6.66-6.66v-4.67a6.67,6.67,0,0,0-6.66-6.67h-21.43a6.66,6.66,0,0,1-6.66-6.66,6.66,6.66,0,0,0-11.37-4.71L1122,534.55a6.65,6.65,0,0,1-4.71,2h-20a6.65,6.65,0,0,1-4.71-2L1069,511a6.65,6.65,0,0,0-4.71-1.95h-43.58a6.67,6.67,0,0,0-6.66,6.67v32.17a6.66,6.66,0,0,1-6.66,6.66H955.5V509.26a6.65,6.65,0,0,1,2-4.71l26.6-26.6a6.65,6.65,0,0,0,2-4.71v-38a6.65,6.65,0,0,1,2.53-5.23l13.65-10.81a6.7,6.7,0,0,1,4.14-1.44h87.17a6.65,6.65,0,0,1,4.71,1.95l38.85,38.85a6.65,6.65,0,0,0,4.71,1.95h23a6.65,6.65,0,0,0,4.71-1.95l14.6-14.6a6.65,6.65,0,0,1,4.71-1.95Z"/><path class="cls-1" d="M1047.5,221.44v46.3a6.65,6.65,0,0,1-2,4.71l-23.34,23.34a6.66,6.66,0,0,1-9.42,0L1001,284a6.65,6.65,0,0,1-2-4.71V257.7a6.66,6.66,0,0,1,1.88-4.64l35.17-36.26A6.67,6.67,0,0,1,1047.5,221.44Z"/><path class="cls-1" d="M922,6.67V70.24a6.65,6.65,0,0,1-2,4.71L791,204.05a6.65,6.65,0,0,1-4.71,1.95H743.76a6.65,6.65,0,0,1-4.71-1.95L621,86a6.65,6.65,0,0,1-2-4.71V53.67A6.67,6.67,0,0,1,625.66,47h61.58a6.65,6.65,0,0,0,4.71-2L735.05,2A6.65,6.65,0,0,1,739.76,0H915.34A6.67,6.67,0,0,1,922,6.67Z"/><path class="cls-1" d="M806.25,735.51V861.24a6.65,6.65,0,0,1-2,4.71L624.58,1045.68a6.64,6.64,0,0,0-2,4.71v42.95A6.66,6.66,0,0,1,616,1100h-32.3a6.66,6.66,0,0,1-6.66-6.66V916.76a6.65,6.65,0,0,1,2-4.71l16.6-16.6a6.65,6.65,0,0,0,2-4.71v-71a6.65,6.65,0,0,0-2-4.71L522.2,741.7a6.65,6.65,0,0,1-2-4.71V636.76a6.65,6.65,0,0,0-2-4.71l-63.22-63.22a6.68,6.68,0,0,0-4.72-2h-40.6a6.69,6.69,0,0,1-4.71-2l-85.49-85.49h44.85a6.64,6.64,0,0,1,4.5,1.75l25.18,23.06a6.64,6.64,0,0,0,4.5,1.75H432l.51-.21A6.49,6.49,0,0,0,434,508l89.6,89.6a6.65,6.65,0,0,0,4.71,2h142a6.65,6.65,0,0,1,4.71,2L804.3,730.8A6.65,6.65,0,0,1,806.25,735.51Z"/><path class="cls-1" d="M565,537.67v18.17a6.66,6.66,0,0,1-6.66,6.66H548.26a6.65,6.65,0,0,1-4.71-2l-18.18-18.17A6.67,6.67,0,0,1,530.09,531h28.25A6.67,6.67,0,0,1,565,537.67Z"/><path class="cls-5" d="M432,503.24a6.67,6.67,0,0,0,.51,2.55L432,506H398.59a6.64,6.64,0,0,1-4.5-1.75l-25.18-23.06a6.64,6.64,0,0,0-4.5-1.75H319.56l-77.05-77.05a6.65,6.65,0,0,1-1.95-4.71V309.76a6.65,6.65,0,0,0-1.95-4.71l-78.88-78.88a6.65,6.65,0,0,0-4.71-1.95H98.77a6.65,6.65,0,0,0-4.72,2L46.56,274a6.66,6.66,0,0,1-4.73,2H6.66A6.66,6.66,0,0,1,0,269.34V155.67A6.67,6.67,0,0,1,6.66,149H241.34a6.66,6.66,0,0,0,6.66-6.66V107.67a6.67,6.67,0,0,1,6.66-6.67H369.24a6.65,6.65,0,0,1,4.71,2l52.84,52.84a6.66,6.66,0,0,0,9.42,0l27.34-27.34a6.65,6.65,0,0,1,4.71-1.95h103a6.65,6.65,0,0,1,4.71,1.95L680.3,232.8a6.65,6.65,0,0,1,2,4.71v65.83a6.66,6.66,0,0,1-6.66,6.66H637.76a6.65,6.65,0,0,0-4.71,1.95l-113.6,113.6a6.65,6.65,0,0,0-2,4.71v66.08a6.66,6.66,0,0,1-6.66,6.66H498.5a6.67,6.67,0,0,1-6.67-6.66V471.67a6.67,6.67,0,0,0-6.66-6.67H438.66a6.67,6.67,0,0,0-6.66,6.67Z"/></g></g></svg>