<!-- Generated by IcoMoon.io -->
<svg version="1.1" xmlns="http://www.w3.org/2000/svg" width="32" height="32" viewBox="0 0 32 32">
<title>notification</title>
<path style="fill:#FFFFFF;" d="M8.708 16.593c-1.853 1.361-3.042 3.531-3.042 5.979 0 0.249 0.012 0.495 0.036 0.737l-0.002-0.031v1h6.22c-0.005 0.076-0.021 0.15-0.021 0.227 0 2.265 1.836 4.101 4.101 4.101s4.101-1.836 4.101-4.101v0c0-0.077-0.016-0.15-0.021-0.227h6.22v-1c0.022-0.212 0.034-0.458 0.034-0.707 0-2.448-1.189-4.618-3.021-5.964l-0.021-0.014-0.334-0.332c-1.371-1.373-1.355-2.627-1.318-5.375l0.012-1.479c0.011-0.128 0.017-0.278 0.017-0.429 0-3.084-2.5-5.584-5.584-5.584-0.030 0-0.059 0-0.089 0.001l0.004-0c-0.025-0-0.055-0.001-0.085-0.001-3.084 0-5.583 2.5-5.583 5.583 0 0.151 0.006 0.301 0.018 0.449l-0.001-0.020 0.012 1.479c0.037 2.748 0.053 4.002-1.318 5.375zM16 26.604c-1.159-0.001-2.099-0.941-2.1-2.1v-0c0.010-0.087 0.025-0.163 0.045-0.238l-0.003 0.012h4.115c0.018 0.064 0.033 0.14 0.042 0.219l0.001 0.008c-0.002 1.159-0.941 2.099-2.1 2.1h-0zM10.456 17.675c1.969-1.969 1.944-3.897 1.904-6.816l-0.012-1.451c-0.018-0.134-0.028-0.288-0.028-0.446 0-1.971 1.597-3.568 3.568-3.568 0.039 0 0.078 0.001 0.117 0.002l-0.006-0c0.033-0.001 0.071-0.002 0.11-0.002 1.971 0 3.569 1.598 3.569 3.569 0 0.157-0.010 0.311-0.030 0.462l0.002-0.018-0.011 1.451c-0.040 2.92-0.064 4.848 1.904 6.816l0.336 0.336c1.742 1.734 2.285 2.275 2.397 4.267h-16.553c0.111-1.992 0.654-2.533 2.397-4.267z"></path>
</svg>
