<!-- Generated by IcoMoon.io -->
<svg version="1.1" xmlns="http://www.w3.org/2000/svg" width="32" height="32" viewBox="0 0 32 32">
<title>notification-ring</title>
<path style="fill:#FFFFFF;" d="M5.883 19.523c-0.057 0.345-0.090 0.743-0.090 1.148 0 2.291 1.042 4.339 2.677 5.696l0.012 0.010 0.707 0.707 4.398-4.398c0.050 0.058 0.091 0.12 0.145 0.175 0.742 0.742 1.767 1.201 2.9 1.201 2.265 0 4.101-1.836 4.101-4.101 0-1.133-0.459-2.158-1.201-2.9v0c-0.055-0.055-0.117-0.095-0.175-0.145l4.398-4.398-0.707-0.707c-1.367-1.648-3.415-2.69-5.706-2.69-0.405 0-0.803 0.033-1.191 0.095l0.043-0.006-0.471 0.001c-1.94-0.001-2.816-0.9-4.733-2.869l-1.037-1.053c-1.030-1.197-2.547-1.95-4.24-1.95-1.572 0-2.992 0.649-4.007 1.695l-0.001 0.001c-1.046 1.016-1.695 2.435-1.695 4.007 0 1.693 0.753 3.21 1.943 4.234l0.007 0.006 1.054 1.037c1.969 1.917 2.867 2.792 2.868 4.733zM18.118 21.446c-0.38 0.38-0.905 0.614-1.485 0.614s-1.105-0.235-1.485-0.614l0 0c-0.044-0.055-0.087-0.118-0.126-0.183l-0.004-0.008 2.91-2.91c0.073 0.042 0.135 0.085 0.194 0.132l-0.003-0.002c0.379 0.38 0.614 0.905 0.614 1.485s-0.235 1.105-0.615 1.486l0-0zM7.884 19.052c0-2.784-1.381-4.129-3.473-6.166l-1.034-1.018c-0.843-0.659-1.38-1.676-1.38-2.818 0-1.024 0.431-1.947 1.122-2.598l0.002-0.002c0.653-0.693 1.577-1.125 2.601-1.125 1.142 0 2.159 0.537 2.813 1.372l0.006 0.008 1.018 1.034c2.037 2.092 3.382 3.473 6.166 3.473h0.476c2.458-0.006 3.225-0.007 4.712 1.323l-11.705 11.706c-1.33-1.487-1.329-2.254-1.323-4.712z"></path>
<path style="fill:#FFFFFF;" d="M25.981 9.176h6v2h-6v-2z"></path>
<path style="fill:#FFFFFF;" d="M25.142 4.671l4.398-4.082 1.359 1.465-4.398 4.082-1.359-1.465z"></path>
<path style="fill:#FFFFFF;" d="M25.248 15.877l1.467-1.36 4.079 4.4-1.467 1.36-4.079-4.4z"></path>
</svg>
